PathFileType	4	(X/Y/Z)	/Users/itak/Documents/Research/Walk-IL/dataset/trc/00054_00006.trc
DataRate	CameraRate	NumFrames	NumMarkers	Units	OrigDataRate	OrigDataStartFrame	OrigNumFrames
100.000000	100.000000	4	53	mm	100.000000	118	472
Frame#	Time	RPSI			LPSI			L3			STRN			T10			C7			CLAV			RBAK			LBAK			LSHO			LUPA			LAEL			LAOL			LWTS			LWPS			LFRA			LHPS			LHTS			RSHO			RUPA			RAEL			RAOL			RWTS			RWPS			RFRA			RIFD			RHTS			RHPS			RBHD			LFHD			RFHD			LBHD			LHIP			RHIP			RASI			LASI			LKNE			LTHI			LANK			LTIP			LTOE			LMT1			LMT5			LHEE			RKNE			RTHI			RANK			RTIP			RTOE			RMT1			RMT5			RHEE			LIFD			
		X1	Y1	Z1	X2	Y2	Z2	X3	Y3	Z3	X4	Y4	Z4	X5	Y5	Z5	X6	Y6	Z6	X7	Y7	Z7	X8	Y8	Z8	X9	Y9	Z9	X10	Y10	Z10	X11	Y11	Z11	X12	Y12	Z12	X13	Y13	Z13	X14	Y14	Z14	X15	Y15	Z15	X16	Y16	Z16	X17	Y17	Z17	X18	Y18	Z18	X19	Y19	Z19	X20	Y20	Z20	X21	Y21	Z21	X22	Y22	Z22	X23	Y23	Z23	X24	Y24	Z24	X25	Y25	Z25	X26	Y26	Z26	X27	Y27	Z27	X28	Y28	Z28	X29	Y29	Z29	X30	Y30	Z30	X31	Y31	Z31	X32	Y32	Z32	X33	Y33	Z33	X34	Y34	Z34	X35	Y35	Z35	X36	Y36	Z36	X37	Y37	Z37	X38	Y38	Z38	X39	Y39	Z39	X40	Y40	Z40	X41	Y41	Z41	X42	Y42	Z42	X43	Y43	Z43	X44	Y44	Z44	X45	Y45	Z45	X46	Y46	Z46	X47	Y47	Z47	X48	Y48	Z48	X49	Y49	Z49	X50	Y50	Z50	X51	Y51	Z51	X52	Y52	Z52	X53	Y53	Z53	

119	1.18	875.2886352539062	1026.593017578125	-181.4279937744141	866.6085205078125	1017.784973144531	-356.8048400878906	876.0974731445312	1084.344360351562	-274.5163269042969	1136.914428710938	1267.833862304688	-267.9784240722656	867.4609375	1219.34521484375	-276.9601745605469	939.6884155273438	1482.31494140625	-282.6225891113281	1113.224365234375	1383.871337890625	-273.7484130859375	865.8975219726562	1349.807861328125	-206.1954956054688	919.4463500976562	1442.989990234375	-383.5274353027344	1025.334228515625	1440.582153320312	-451.8318786621094	1008.509582519531	1313.675048828125	-528.6322021484375	1030.888061523438	1098.964233398438	-548.1307373046875	964.5960693359375	1083.229736328125	-466.5802917480469	1123.795654296875	861.7892456054688	-481.0632629394531	1068.313110351562	849.2494506835938	-543.1463623046875	1053.271240234375	990.0121459960938	-554.5347900390625	1103.178466796875	768.4966430664062	-536.6333618164062	1148.541015625	780.2987670898438	-482.724853515625	997.39306640625	1445.764404296875	-104.2957992553711	982.9517822265625	1378.48388671875	-39.71744537353516	946.7952270507812	1116.02197265625	0.1638272851705551	961.7515258789062	1090.442016601562	-94.5478515625	1093.508422851562	866.4103393554688	-42.27982711791992	1026.673950195312	850.7901000976562	11.10262680053711	961.54296875	1034.332275390625	9.92615795135498	1093.398193359375	675.7056884765625	-62.20186233520508	1113.0654296875	760.9719848632812	-46.22927474975586	1059.309936523438	759.7598266601562	8.682915687561035	988.4434204101562	1654.7890625	-353.6060485839844	1136.364135742188	1686.166381835938	-198.2035217285156	1160.357055664062	1693.072998046875	-321.5092468261719	970.8955078125	1640.31640625	-218.1233062744141	975.9344482421875	953.8381958007812	-445.0981140136719	935.3610229492188	953.4221801757812	-101.9246139526367	1060.371459960938	969.1621704101562	-120.6093215942383	1082.335327148438	960.861328125	-386.4696960449219	1073.810424804688	494.5818481445312	-400.4566345214844	1034.24658203125	631.0131225585938	-437.1432495117188	941.3134765625	41.57257843017578	-433.0597839355469	1003.105102539062	254.3899383544922	-432.7567443847656	1145.81884765625	29.14664077758789	-441.4042358398438	1100.819213867188	30.78116798400879	-384.1366577148438	1039.560913085938	27.89431381225586	-479.0498962402344	893.4564819335938	40.58842468261719	-355.3277282714844	1049.16943359375	510.2138366699219	-129.7875061035156	1028.403442382812	780.0120849609375	-94.34489440917969	948.3966064453125	37.44294357299805	-142.6568145751953	1028.35107421875	384.2892150878906	-127.8583068847656	1165.260009765625	28.0515022277832	-175.3555755615234	1103.440063476562	32.92716598510742	-216.5897979736328	1072.896850585938	37.8022346496582	-125.6493453979492	901.5487670898438	39.10551071166992	-199.2498931884766	1137.51806640625	677.01953125	-457.5048522949219	
120	1.19	872.509765625	1027.0732421875	-179.3565673828125	863.4585571289062	1018.304992675781	-354.5852355957031	873.7265014648438	1085.078369140625	-272.1475524902344	1136.004150390625	1267.244140625	-266.4638671875	866.2527465820312	1220.025146484375	-274.3863830566406	939.6885986328125	1482.603271484375	-280.5329284667969	1112.845092773438	1383.38330078125	-272.1872863769531	865.630859375	1350.463256835938	-203.6484832763672	918.8873291015625	1443.353637695312	-381.3101196289062	1024.621704101562	1440.469604492188	-449.9251403808594	1007.193603515625	1313.688232421875	-526.607421875	1029.198608398438	1099.07666015625	-546.7783813476562	963.1869506835938	1083.204956054688	-465.0475463867188	1122.135375976562	861.6728515625	-480.4786376953125	1066.414428710938	849.2822265625	-542.3961791992188	1051.4853515625	990.1072998046875	-553.4736328125	1101.271606445312	768.5337524414062	-536.1713256835938	1146.821899414062	780.2064208984375	-482.4005737304688	997.96923828125	1446.005615234375	-102.3755340576172	983.5052490234375	1378.9150390625	-37.63269805908203	946.708740234375	1116.651000976562	3.035116672515869	960.8414306640625	1090.869506835938	-91.78254699707031	1092.257202148438	866.6290283203125	-40.21611785888672	1025.696655273438	851.2033081054688	13.5621395111084	961.0196533203125	1034.891723632812	12.71568775177002	1091.621704101562	675.9178466796875	-59.9828987121582	1111.549072265625	761.13916015625	-44.19528961181641	1058.05419921875	760.0953369140625	10.98850917816162	988.3627319335938	1654.644287109375	-351.9121398925781	1136.52734375	1686.01904296875	-196.7256622314453	1160.339233398438	1692.9892578125	-320.1016845703125	971.0189819335938	1640.130249023438	-216.4229125976562	972.20361328125	954.3988647460938	-443.6972045898438	932.8555908203125	953.3092041015625	-100.1678237915039	1057.927612304688	968.513671875	-119.4291152954102	1078.78369140625	960.936279296875	-385.2811279296875	1073.173095703125	495.2763977050781	-399.7319946289062	1032.580200195312	631.4685668945312	-436.7035827636719	941.7055053710938	41.77646255493164	-433.2010192871094	1002.935607910156	255.0211181640625	-432.5322570800781	1145.94970703125	29.34826469421387	-441.3141479492188	1101.10498046875	30.9251823425293	-384.1990051269531	1039.94287109375	27.93388175964355	-479.1601257324219	893.8609008789062	40.94043350219727	-355.5519409179688	1048.467041015625	510.3019409179688	-129.0164642333984	1026.453247070312	780.18505859375	-93.43251037597656	948.4066162109375	37.45491790771484	-142.7683868408203	1028.107666015625	384.0498962402344	-127.3301315307617	1165.323608398438	27.99568748474121	-175.2713470458984	1103.55810546875	32.92529296875	-216.6274719238281	1072.943237304688	37.78286743164062	-125.7153244018555	901.6630859375	39.06105041503906	-199.4058227539062	1135.684448242188	676.7621459960938	-457.2308959960938	
121	1.2	869.6937255859375	1027.6044921875	-177.1290435791016	860.0932006835938	1018.922302246094	-352.1971130371094	871.2363891601562	1085.84375	-269.6146850585938	1135.069458007812	1266.617797851562	-264.9555358886719	864.9918823242188	1220.738891601562	-271.6790771484375	939.695556640625	1482.885864257812	-278.4192199707031	1112.454711914062	1382.857543945312	-270.6328125	865.3745727539062	1351.141723632812	-201.0138702392578	918.303955078125	1443.713134765625	-379.0528869628906	1023.873718261719	1440.328857421875	-447.9914245605469	1005.821533203125	1313.671264648438	-524.53564453125	1027.438598632812	1099.15966796875	-545.3758544921875	961.7418823242188	1083.160400390625	-463.4529724121094	1120.399047851562	861.5220336914062	-479.850341796875	1064.4365234375	849.2866821289062	-541.5941162109375	1049.628662109375	990.1791381835938	-552.3690185546875	1099.277587890625	768.546875	-535.6607666015625	1145.02099609375	780.0838012695312	-482.0321655273438	998.6156005859375	1446.267456054688	-100.4412460327148	984.1246948242188	1379.385498046875	-35.52272415161133	946.5802612304688	1117.34228515625	5.941373825073242	959.8949584960938	1091.361328125	-88.97586059570312	1090.899047851562	866.8767700195312	-38.10462951660156	1024.581787109375	851.6510620117188	16.03168296813965	960.4161376953125	1035.504272460938	15.5310115814209	1089.697631835938	676.1658325195312	-57.74880218505859	1109.90283203125	761.3327026367188	-42.12152099609375	1056.655517578125	760.4608154296875	13.31310844421387	988.2324829101562	1654.471801757812	-350.2280883789062	1136.60595703125	1685.867553710938	-195.2328796386719	1160.247802734375	1692.92138671875	-318.6703491210938	971.0829467773438	1639.880004882812	-214.7300262451172	967.9931030273438	955.0465087890625	-442.2608947753906	930.3810424804688	953.1693115234375	-98.34086608886719	1055.460205078125	967.8115234375	-118.2871780395508	1074.983032226562	961.0530395507812	-384.1641845703125	1072.485473632812	496.0623474121094	-399.0975341796875	1030.7685546875	632.021484375	-436.3375549316406	942.0712280273438	41.95859146118164	-433.4205932617188	1002.699401855469	255.73828125	-432.3711242675781	1146.015747070312	29.73464775085449	-441.1479187011719	1101.3369140625	31.18394470214844	-384.2503662109375	1040.335083007812	28.01438522338867	-479.2763671875	894.212890625	41.32031631469727	-355.8651123046875	1047.697265625	510.37939453125	-128.2695465087891	1024.498657226562	780.2986450195312	-92.50849914550781	948.4027709960938	37.44268035888672	-142.8659973144531	1027.815063476562	383.8004760742188	-126.8201599121094	1165.378662109375	27.94005012512207	-175.1956634521484	1103.6708984375	32.91999435424805	-216.6771850585938	1072.981323242188	37.7611198425293	-125.7799530029297	901.7623901367188	38.99636077880859	-199.5366516113281	1133.764404296875	676.4686889648438	-456.897216796875	
122	1.21	866.8972778320312	1028.16015625	-174.7531890869141	856.5343017578125	1019.614196777344	-349.6585998535156	868.6279907226562	1086.630737304688	-266.9365844726562	1134.09765625	1265.952514648438	-263.4629821777344	863.6589965820312	1221.475219726562	-268.8631286621094	939.6864624023438	1483.152709960938	-276.2976684570312	1112.034057617188	1382.29296875	-269.09619140625	865.110595703125	1351.832275390625	-198.3134155273438	917.6842651367188	1444.057739257812	-376.775146484375	1023.078552246094	1440.151977539062	-446.0425720214844	1004.39453125	1313.61572265625	-522.4319458007812	1025.616455078125	1099.204833984375	-543.9312744140625	960.2547607421875	1083.087768554688	-461.8121643066406	1118.58935546875	861.3311157226562	-479.172119140625	1062.39111328125	849.2556762695312	-540.740478515625	1047.709716796875	990.2174072265625	-551.225341796875	1097.204956054688	768.5257568359375	-535.0948486328125	1143.141723632812	779.9220581054688	-481.6078491210938	999.3025512695312	1446.541870117188	-98.51223754882812	984.7890625	1379.884399414062	-33.40456390380859	946.3773193359375	1118.091186523438	8.867815017700195	958.8922119140625	1091.913330078125	-86.13269805908203	1089.424194335938	867.149169921875	-35.95502853393555	1023.322021484375	852.1278686523438	18.50508880615234	959.72314453125	1036.16357421875	18.37019157409668	1087.610229492188	676.443359375	-55.51325607299805	1108.115966796875	761.5474853515625	-40.02119064331055	1055.111572265625	760.8511962890625	15.65096282958984	988.0383911132812	1654.259399414062	-348.562744140625	1136.58642578125	1685.70263671875	-193.7359924316406	1160.066528320312	1692.855712890625	-317.2200927734375	971.0736083984375	1639.559326171875	-213.0523681640625	963.3172607421875	955.7655639648438	-440.7959594726562	927.9600219726562	953.0003051757812	-96.45542144775391	1052.984252929688	967.0679931640625	-117.1894989013672	1070.962280273438	961.2094116210938	-383.123046875	1071.77734375	496.9267883300781	-398.5610656738281	1028.838989257812	632.6685180664062	-436.0320129394531	942.3277587890625	42.11936569213867	-433.7282104492188	1002.3603515625	256.5322265625	-432.2811279296875	1145.945556640625	30.35304069519043	-440.8907165527344	1101.42724609375	31.5891284942627	-384.2769775390625	1040.661865234375	28.15071868896484	-479.3882141113281	894.4185791015625	41.72565460205078	-356.2735900878906	1046.860961914062	510.4444885253906	-127.5617370605469	1022.573059082031	780.33154296875	-91.5889892578125	948.38525390625	37.40309524536133	-142.9474945068359	1027.470458984375	383.5491027832031	-126.3301544189453	1165.424072265625	27.88650131225586	-175.1310882568359	1103.77294921875	32.9084358215332	-216.7341461181641	1073.009521484375	37.73791122436523	-125.8416519165039	901.844482421875	38.91391754150391	-199.6392669677734	1131.762329101562	676.1292114257812	-456.4974365234375	
